/* XPM */
static char * classic_xpm[] = {
"256 56 15 1",
" 	c #000000",
".	c #12008C",
"+	c #001117",
"@	c #6B0000",
"#	c #2E00F8",
"$	c #FD0003",
"%	c #D13D2C",
"&	c #078402",
"*	c #007C7B",
"=	c #DF4D4C",
"-	c #766F69",
";	c #7D7C7C",
">	c #BEC0BD",
",	c #FDFE00",
"'	c #FFFFFF",
"------------------------------------------------------------------------------------------------------------------------------------------------------------------------------------------------'''''''''''''''>'''''''''''''''>'''''''''''''''>  ..@@&&..**%%>>",
"->>>>>>>>>>>>>>>->>>>>>>>>>>>>>>->>>>>>>>>>>>>>>->>>>>>>>>>>>>>>->>>>>>>>>>>>>>>->>>>>>>>>>>>>>>->>>>>>>>>>>>>>>->>>>>>>>>>>>>>>->>>>>>>>>>>>>>>->>>>>>>>>>>>>>>-$$$$$$$$$$$$$$$->>>>>>>>>>>>>>>''''''''''''''>-''''''''''''''>-''''''''''''''>-  ..@@&&..**%%>>",
"->>>>>>>>>>>>>>>->>>>>>>>>>>>>>>->>>>>>>>>>>>>>>->>>>>>>>>>>>>>>->>>>>>>>>>>>>>>->>>>>>>>>>>>>>>->>>>>>>>>>>>>>>->>>>>>>>>>>>>>>->>>>>>>>>>>>>>>->>>>>>> >>>>>>>-$$$$$$$ $$$$$$$->>>>>>> >>>>>>>''>>>>>>>>>>>>--''>>>>>>>>>>>>--''>>>>>>>>>>>>----##$$&&##**,,''",
"->>>>>>>>>>>>>>>->>>>>>>##>>>>>>->>>&&&&&&&&>>>>->>$$$$$$$$$>>>>->>>>...>...>>>>->>@@@@@@@@@@>>>->>>********>>>>->>          >>>->>>;;;;;;;;>>>>->>>>>>> >>>>>>>-$$$$$$$ $$$$$$$->$$>>>> >>>>$$>''>>>>>>>>>>>>--''>>>>>$$>>>>>--''>>>>    >>>>----##$$&&##**,,''",
"->>>>>>>>>>>>>>>->>>>>>###>>>>>>->>&&&&&&&&&&>>>->>$$$$$$$$$$>>>->>>>...>...>>>>->>@@@@@@@@@@>>>->>*********>>>>->>          >>>->>;;;;;;;;;;>>>->>> >     > >>>-$$$ $     $ $$$->>$$>     >$%>>''>>>>>>>>>>>>--''>>>$$$$>>>>>--''>>>  >>  >>>--                ",
"->>>>>>>>>>>>>>>->>>>>####>>>>>>->>&&&>>>>&&&>>>->>>>>>>>>$$$>>>->>>...>>...>>>>->>@@@>>>>>>>>>>->>***>>>>>>>>>>->>>>>>>>>   >>>->>;;;>>>>;;;>>>->>>>       >>>>-$$$$       $$$$->>>$$     $$>>>''>>>>>>>>>>>>--''>>$$$$$>>>>>--''>>>  >>  >>>--                ",
"->>>>>>>>>>>>>>>->>>>#####>>>>>>->>>>>>>>>&&&>>>->>>>>>>>>$$$>>>->>>...>>...>>>>->>@@@>>>>>>>>>>->>***>>>>>>>>>>->>>>>>>>>   >>>->>;;;>>>>;;;>>>->>>  ''     >>>-$$$  ''     $$$->>> $$'  $$ >>>''>>>>>>>>>>>>--''>>>$$$$>>>>>--''>>>>>>>  >>>--                ",
"->>>>>>>>>>>>>>>->>>>>>###>>>>>>->>>>>>>&&&&>>>>->>>>>$$$$$$>>>>->>..........>>>->>@@@@@@@@@>>>>->>*********>>>>->>>>>>>>   >>>>->>>;;;;;;;;>>>>->>>  ''     >>>-$$$  ''     $$$->>>  $$ $$  >>>''>>>>>>>>>>>>--''>>>>>$$>>>>>--''>>>>>>  >>>>--                ",
"->>>>>>>>>>>>>>>->>>>>>###>>>>>>->>>>>&&&&&>>>>>->>>>>$$$$$$>>>>->>..........>>>->>@@@@@@@@@@>>>->>**********>>>->>>>>>>>   >>>>->>>;;;;;;;;>>>>->             >-$             $->     $$$     >''>>>>>>>>>>>>--''>>>>>> >>>>>--''>>>>>  >>>>>--                ",
"->>>>>>>>>>>>>>>->>>>>>###>>>>>>->>>&&&&&>>>>>>>->>>>>>>>>$$$>>>->>>>>>>>...>>>>->>>>>>>>>@@@>>>->>***>>>>***>>>->>>>>>>   >>>>>->>;;;>>>>;;;>>>->>>         >>>-$$$         $$$->>>   $$$   >>>''>>>>>>>>>>>>--''>>>>>> >>>>>--''>>>>>  >>>>>--                ",
"->>>>>>>>>>>>>>>->>>>>>###>>>>>>->>&&&&>>>>>>>>>->>>>>>>>>$$$>>>->>>>>>>>...>>>>->>>>>>>>>@@@>>>->>***>>>>***>>>->>>>>>>   >>>>>->>;;;>>>>;;;>>>->>>         >>>-$$$         $$$->>>  $$ $$  >>>''>>>>>>>>>>>>--''>>>>    >>>>--''>>>>>>>>>>>>--                ",
"->>>>>>>>>>>>>>>->>>>#######>>>>->>&&&&&&&&&&>>>->>$$$$$$$$$$>>>->>>>>>>>...>>>>->>@@@@@@@@@@>>>->>**********>>>->>>>>>   >>>>>>->>;;;;;;;;;;>>>->>>>       >>>>-$$$$       $$$$->>>>$$   $$>>>>''>>>>>>>>>>>>--''>>        >>--''>>>>>  >>>>>--                ",
"->>>>>>>>>>>>>>>->>>>#######>>>>->>&&&&&&&&&&>>>->>$$$$$$$$$>>>>->>>>>>>>...>>>>->>@@@@@@@@@>>>>->>>********>>>>->>>>>>   >>>>>>->>>;;;;;;;;>>>>->>> >     > >>>-$$$ $     $ $$$->>>$$     $$>>>''>>>>>>>>>>>>--''>>        >>--''>>>>>  >>>>>--                ",
"->>>>>>>>>>>>>>>->>>>>>>>>>>>>>>->>>>>>>>>>>>>>>->>>>>>>>>>>>>>>->>>>>>>>>>>>>>>->>>>>>>>>>>>>>>->>>>>>>>>>>>>>>->>>>>>>>>>>>>>>->>>>>>>>>>>>>>>->>>>>>> >>>>>>>-$$$$$$$ $$$$$$$->>$$>>> >>>$$>>''>>>>>>>>>>>>--''>>>>>>>>>>>>--''>>>>>>>>>>>>--                ",
"->>>>>>>>>>>>>>>->>>>>>>>>>>>>>>->>>>>>>>>>>>>>>->>>>>>>>>>>>>>>->>>>>>>>>>>>>>>->>>>>>>>>>>>>>>->>>>>>>>>>>>>>>->>>>>>>>>>>>>>>->>>>>>>>>>>>>>>->>>>>>> >>>>>>>-$$$$$$$ $$$$$$$->$$>>>> >>>>$$>'>--------------'>--------------'>--------------                ",
"->>>>>>>>>>>>>>>->>>>>>>>>>>>>>>->>>>>>>>>>>>>>>->>>>>>>>>>>>>>>->>>>>>>>>>>>>>>->>>>>>>>>>>>>>>->>>>>>>>>>>>>>>->>>>>>>>>>>>>>>->>>>>>>>>>>>>>>->>>>>>>>>>>>>>>-$$$$$$$$$$$$$$$->>>>>>>>>>>>>>>>--------------->--------------->---------------                ",
"-------------------------------------------------------------------------------------------------------------------------------------------------                                               '''''''''''''''>'''''''''''''''>'''''''''''''''>                ",
"-,,,,,,,,,,,,,,,-,,,,,,,,,,,,,,,-,,,,,,,,,,,,,,,-,,,,,,,,,,,,,,,-,,,,,,,,,,,,,,,-,,,,,,,,,,,,,,,-,,,,,,,,,,,,,,,-,,,,,,,,,,,,,,,-,,,,,,,,,,,,,,,-                                               ''''''''''''''>-''''''''''''''>-''''''''''''''>-                ",
"-,,,,,,,,,,,,,,,-,,,,,,,,,,,,,,,-,,,,,,,,,,,,,,,-,,,,,,,,,,,,,,,-,,,,,,,,,,,,,,,-,,,,,,,,,,,,,,,-,,,,,,,,,,,,,,,-,,,,,,,,,,,,,,,-,,,,,,,,,,,,,,,-                                               '',,,,,,,,,,,,--'',,,,,,,,,,,,--'',,,,,,,,,,,,--                ",
"-,,,,,,,,,,,,,,,-,,,,,,,##,,,,,,-,,,&&&&&&&&,,,,-,,$$$$$$$$$,,,,-,,,,...,...,,,,-,,@@@@@@@@@@,,,-,,,********,,,,-,,          ,,,-,,,;;;;;;;;,,,,-                                               '',,,,,,,,,,,,--'',,,,,$$,,,,,--'',,,,    ,,,,--                ",
"-,,,,,,,,,,,,,,,-,,,,,,###,,,,,,-,,&&&&&&&&&&,,,-,,$$$$$$$$$$,,,-,,,,...,...,,,,-,,@@@@@@@@@@,,,-,,*********,,,,-,,          ,,,-,,;;;;;;;;;;,,,-                                               '',,,,,,,,,,,,--'',,,$$$$,,,,,--'',,,  ,,  ,,,--                ",
"-,,,,,,,,,,,,,,,-,,,,,####,,,,,,-,,&&&,,,,&&&,,,-,,,,,,,,,$$$,,,-,,,...,,...,,,,-,,@@@,,,,,,,,,,-,,***,,,,,,,,,,-,,,,,,,,,   ,,,-,,;;;,,,,;;;,,,-                                               '',,,,,,,,,,,,--'',,$$$$$,,,,,--'',,,  ,,  ,,,--                ",
"-,,,,,,,,,,,,,,,-,,,,#####,,,,,,-,,,,,,,,,&&&,,,-,,,,,,,,,$$%,,,-,,,...,,...,,,,-,,@@@,,,,,,,,,,-,,***,,,,,,,,,,-,,,,,,,,,   ,,,-,,;;;,,,,;;;,,,-                                               '',,,,,,,,,,,,--'',,,$$$$,,,,,--'',,,,,,,  ,,,--                ",
"-,,,,,,,,,,,,,,,-,,,,,,###,,,,,,-,,,,,,,&&&&,,,,-,,,,,$$$$$$,,,,-,,..........,,,-,,@@@@@@@@@,,,,-,,*********,,,,-,,,,,,,,   ,,,,-,,,;;;;;;;;,,,,-                                               '',,,,,,,,,,,,--'',,,,,$$,,,,,--'',,,,,,  ,,,,--                ",
"-,,,,,,,,,,,,,,,-,,,,,,###,,,,,,-,,,,,&&&&&,,,,,-,,,,,$$$$$$,,,,-,,..........,,,-,,@@@@@@@@@@,,,-,,**********,,,-,,,,,,,,   ,,,,-,,,;;;;;;;;,,,,-                                               '',,,,,,,,,,,,--'',,,,,, ,,,,,--'',,,,,  ,,,,,--                ",
"-,,,,,,,,,,,,,,,-,,,,,,###,,,,,,-,,,&&&&&,,,,,,,-,,,,,,,,,$$$,,,-,,,,,,,,...,,,,-,,,,,,,,,@@@,,,-,,***,,,,***,,,-,,,,,,,   ,,,,,-,,;;;,,,,;;;,,,-                                               '',,,,,,,,,,,,--'',,,,,, ,,,,,--'',,,,,  ,,,,,--                ",
"-,,,,,,,,,,,,,,,-,,,,,,###,,,,,,-,,&&&&,,,,,,,,,-,,,,,,,,,$$$,,,-,,,,,,,,...,,,,-,,,,,,,,,@@@,,,-,,***,,,,***,,,-,,,,,,,   ,,,,,-,,;;;,,,,;;;,,,-                                               '',,,,,,,,,,,,--'',,,,    ,,,,--'',,,,,,,,,,,,--                ",
"-,,,,,,,,,,,,,,,-,,,,#######,,,,-,,&&&&&&&&&&,,,-,,$$$$$$$$$$,,,-,,,,,,,,...,,,,-,,@@@@@@@@@@,,,-,,**********,,,-,,,,,,   ,,,,,,-,,;;;;;;;;;;,,,-                                               '',,,,,,,,,,,,--'',,        ,,--'',,,,,  ,,,,,--                ",
"-,,,,,,,,,,,,,,,-,,,,#######,,,,-,,&&&&&&&&&&,,,-,,$$$$$$$$$,,,,-,,,,,,,,...,,,,-,,@@@@@@@@@,,,,-,,,********,,,,-,,,,,,   ,,,,,,-,,,;;;;;;;;,,,,-                                               '',,,,,,,,,,,,--'',,        ,,--'',,,,,  ,,,,,--                ",
"-,,,,,,,,,,,,,,,-,,,,,,,,,,,,,,,-,,,,,,,,,,,,,,,-,,,,,,,,,,,,,,,-,,,,,,,,,,,,,,,-,,,,,,,,,,,,,,,-,,,,,,,,,,,,,,,-,,,,,,,,,,,,,,,-,,,,,,,,,,,,,,,-                                               '',,,,,,,,,,,,--'',,,,,,,,,,,,--'',,,,,,,,,,,,--                ",
"-,,,,,,,,,,,,,,,-,,,,,,,,,,,,,,,-,,,,,,,,,,,,,,,-,,,,,,,,,,,,,,,-,,,,,,,,,,,,,,,-,,,,,,,,,,,,,,,-,,,,,,,,,,,,,,,-,,,,,,,,,,,,,,,-,,,,,,,,,,,,,,,-                                               '>--------------'>--------------'>--------------                ",
"-,,,,,,,,,,,,,,,-,,,,,,,,,,,,,,,-,,,,,,,,,,,,,,,-,,,,,,,,,,,,,,,-,,,,,,,,,,,,,,,-,,,,,,,,,,,,,,,-,,,,,,,,,,,,,,,-,,,,,,,,,,,,,,,-,,,,,,,,,,,,,,,-                                               >--------------->--------------->---------------                ",
"+*+*+*+*+*+*+*+*+*+*+*+*+*+*+*+*+*+*+*+*+*+*+*+*+*+*+*+*+*+*+*+*+*+*+*+*>>>>>;;;'''>>>>>+*+*+*+*+*+*+*+*>>>>>;;>'''''''''''''''''''>>>>>+*+*+*+*                                                                                                                ",
"*+*+*+*+*+*+*+*+*+*+*+*+*+*+*+*+*+*+*+*+*+*+*+*+*+*+*+*+*+*+*+*+*+*+*+*+>>>>>;;;'''>>>>>*+*+*+*+*+*+*+*+>>>>>;>''''''''''''''''''''>>>>>*+*+*+*+                                                                                                                ",
"+*+*+*+*+*+*+*+*+*+*+*+*+*+*+*+*+*+*+*+*+*+*+*+*+*+*+*+*+*+*+*+*+*+*+*+*>>>>>;;;'''>>>>>+*+*+*+*+*+*+*+*>>>>>>'''''''''''''''''''''>>>>>+*+*+*+*                                                                                                                ",
"*+*+*+*+*+*+*+*+*+*+*+*+*+*+*+*+*+*+*+*+*+*+*+*+*+*+*+*+*+*+*+*+*+*+*+*+>>>>>;;;'''>>>>>*+*+*+*+*+*+*+*+>>>>>>>>>>>>>>>>>>>>>>>>>>>>>>>>*+*+*+*+                                                                                                                ",
"+*+*+*+*+*+*+*+*+*+*+*+*+*+*+*+*+*+*+*+*+*+*+*+*+*+*+*+*+*+*+*+*+*+*+*+*>>>>>;;;'''>>>>>+*+*+*+*+*+*+*+*>>>>>>>>>>>>>>>>>>>>>>>>>>>>>>>>+*+*+*+*                                                                                                                ",
"*+*+*+*+*+*+*+*+*+*+*+*+*+*+*+*+*+*+*+*+*+*+*+*+*+*+*+*+*+*+*+*+*+*+*+*+>>>>>;;;'''>>>>>*+*+*+*+*+*+*+*+>>>>>>>>>>>>>>>>>>>>>>>>>>>>>>>>*+*+*+*+                                                                                                                ",
"+*+*+*+*+*+*+*+*+*+*+*+*+*+*+*+*+*+*+*+*+*+*+*+*+*+*+*+*+*+*+*+*+*+*+*+*>>>>>;;;'''>>>>>+*+*+*+*+*+*+*+*>>>>>>>>>>>>>>>>>>>>>>>>>>>>>>>>+*+*+*+*                                                                                                                ",
"*+*+*+*+*+*+*+*+*+*+*+*+*+*+*+*+*+*+*+*+*+*+*+*+*+*+*+*+*+*+*+*+*+*+*+*+>>>>>;;;'''>>>>>*+*+*+*+*+*+*+*+*>>>>>>>>>>>>>>>>>>>>>>>>>>>>>> *+*+*+*+                                                                                                                ",
"+*+*+*+*+*+*+*+*+*+*+*+* >>>>>>>>>>>>>>>>>>>>>>>>>>>>>>*+*+*+*+*+*+*+*+*>>>>>;;;'''>>>>>+*+*+*+*+*+*+*+*+*+*+*+*+*+*+*+*+*+*+*+*+*+*+*+*+*+*+*+*                                                                                                                ",
"*+*+*+*+*+*+*+*+*+*+*+*+>>>>>>>>>>>>>>>>>>>>>>>>>>>>>>>>*+*+*+*+*+*+*+*+>>>>>;;;'''>>>>>*+*+*+*+*+*+*+*+*+*+*+*+*+*+*+*+*+*+*+*+*+*+*+*+*+*+*+*+                                                                                                                ",
"+*+*+*+*+*+*+*+*+*+*+*+*>>>>>>>>>>>>>>>>>>>>>>>>>>>>>>>>+*+*+*+*+*+*+*+*>>>>>;;;'''>>>>>+*+*+*+*+*+*+*+*+*+*+*+*+*+*+*+*+*+*+*+*+*+*+*+*+*+*+*+*                                                                                                                ",
"*+*+*+*+*+*+*+*+*+*+*+*+>>>>>>>>>>>>>>>>>>>>>>>>>>>>>>>>*+*+*+*+*+*+*+*+>>>>>;;;'''>>>>>*+*+*+*+*+*+*+*+*+*+*+*+*+*+*+*+*+*+*+*+*+*+*+*+*+*+*+*+                                                                                                                ",
"+*+*+*+*+*+*+*+*+*+*+*+*>>>>>>>>>>>>>>>>>>>>>>>>>>>>>>>>+*+*+*+*+*+*+*+*>>>>>;;;'''>>>>>+*+*+*+*+*+*+*+*+*+*+*+*+*+*+*+*+*+*+*+*+*+*+*+*+*+*+*+*                                                                                                                ",
"*+*+*+*+*+*+*+*+*+*+*+*+>>>>>--------------------->>>>>>*+*+*+*+*+*+*+*+>>>>>;;;'''>>>>>*+*+*+*+*+*+*+*+*+*+*+*+*+*+*+*+*+*+*+*+*+*+*+*+*+*+*+*+                                                                                                                ",
"+*+*+*+*+*+*+*+*+*+*+*+*>>>>>-------------------->'>>>>>+*+*+*+*+*+*+*+*>>>>>;;;'''>>>>>+*+*+*+*+*+*+*+*+*+*+*+*+*+*+*+*+*+*+*+*+*+*+*+*+*+*+*+*                                                                                                                ",
"* * * * *+*+*+*+*+*+*+*+>>>>>------------------->''>>>>>*+*+*+*+*+*+*+*+>>>>>;;;'''>>>>>*+*+*+*+*+*+*+*+*+*+*+*+*+*+*+*+*+*+*+*+*+*+*+*+*+*+*+*+                                                                                                                ",
"        +*+*+*+*+*+*+*+*+*+*+*+*+*+*>>-  '>>+*+*+*+*>>-          '>>+*+*           ''                            ''''''                                                                                                                                         ",
"        *+*+*+*+*+*+*+*+*+*+*+*+*+*+>>-  '>>*+*+*+*+>>>'''''''''''>>*+*+         ' '' '                          '    '           ====     ==     ====   =====     ===   =====    ====   ======   ====    ====                                                  ",
"        +*+*+*+*+*+*+*+*+*+*+*+*+*+*>>-  '>>+*+*+*+*>>>>>>>>>>>>>>>>+*+*          ''''                           '   +'          ==  ==   ===    ==  ==      ==   ====   ==      ==          ==  ==  ==  ==  ==                                                 ",
"        *+*+*+*+*+*+*+*+*+*+*+*+*+*+>>-  '>>*+*+*+*+*>>>>>>>>>>>>>>+*+*+        ''' ''''                          '  '           ==  ==    ==        ==    ===   == ==   =====   =====      ==    ====   ==  ==                                                 ",
"        +*+*+>>>>>>>>>>>>>>*+*+*+*+*>>-  '>>+*+*+*+*+*+*+*+*+*+*+*+*+*+*        ''''''''                 ======    ''            ==  ==    ==     ====       ==  ======      ==  ==  ==     ==   ==  ==   =====                                                 ",
"        *+*+>>>>>>>>>>>>>>>>*+*+*+*+>>-  '>>*+*+*+*+*+*+*+*+*+*+*+*+*+*+          ''''                            ''''           ==  ==    ==    ==          ==     ==       ==  ==  ==    ==    ==  ==      ==                                                 ",
"        +*+*>>----------->>>+*+*+*+*>>-  '>>+*+*+*+*+*+*+*+*+*+*+*+*+*+*         ' '' '                          ''''''           ====    ====   ======  =====      ==   =====    ====     ==     ====    ====                                                  ",
"        *+*+>>-          '>>*+*+*+*+>>-  '>>*+*+*+*+*+*+*+*+*+*+*+*+*+*+           ''                            ''''''                                                                                                                                         "};
